<?xml version="1.0" standalone="no"?>
<!DOCTYPE svg PUBLIC "-//W3C//DTD SVG 20010904//EN"
 "http://www.w3.org/TR/2001/REC-SVG-20010904/DTD/svg10.dtd">
<svg version="1.0" xmlns="http://www.w3.org/2000/svg"
 width="198.000000pt" height="198.000000pt" viewBox="0 0 198.000000 198.000000"
 preserveAspectRatio="xMidYMid meet">
<metadata>
Created by potrace 1.14, written by Peter Selinger 2001-2017
</metadata>
<g transform="translate(0.000000,198.000000) scale(0.100000,-0.100000)"
fill="#000000" stroke="none">
<path d="M844 1948 c-16 -12 -36 -30 -45 -40 -9 -10 -19 -18 -23 -18 -4 0 -16
-8 -27 -18 -11 -11 -34 -19 -51 -20 -17 0 -34 -5 -37 -10 -3 -4 -18 -8 -33 -7
-15 1 -25 -2 -22 -7 6 -9 -27 -5 -69 8 -12 3 -35 16 -52 28 -16 12 -35 26 -42
30 -8 4 -57 -37 -133 -112 -114 -112 -136 -142 -107 -142 9 0 9 -2 -1 -9 -11
-7 -11 -9 1 -14 8 -3 18 -18 22 -34 3 -15 10 -30 14 -33 9 -6 38 -77 57 -140
16 -52 14 -337 -2 -348 -5 -4 -9 -18 -9 -32 1 -14 -2 -29 -6 -35 -4 -5 -7 -13
-7 -18 -1 -24 -24 -125 -33 -140 -5 -10 -7 -22 -4 -27 4 -6 2 -10 -3 -10 -6 0
-13 -17 -16 -37 -10 -61 -13 -123 -6 -123 3 0 11 -21 16 -47 15 -65 18 -77 24
-83 9 -9 34 -65 32 -73 -1 -4 3 -7 8 -7 6 0 10 -5 10 -11 0 -18 76 -106 140
-162 39 -34 122 -86 173 -107 15 -7 27 -16 27 -22 0 -6 6 -8 14 -5 8 3 16 3
18 -1 5 -12 105 -62 123 -62 8 0 15 -5 15 -11 0 -6 9 -8 20 -4 11 4 20 2 20
-4 0 -5 17 -13 38 -17 20 -4 41 -9 47 -12 22 -13 114 -7 175 12 36 11 68 19
73 18 4 -1 7 2 7 8 0 5 16 12 35 16 19 3 35 10 35 15 0 5 3 8 8 7 10 -2 65 24
73 35 3 5 9 9 12 8 16 -1 77 30 77 39 0 6 6 10 14 10 8 0 28 11 44 25 17 14
33 25 37 25 5 0 17 9 29 20 69 65 95 88 99 84 2 -3 10 9 17 26 7 16 17 30 23
30 6 0 7 3 4 6 -3 4 3 18 13 32 11 13 20 31 20 38 0 8 4 14 9 14 7 0 27 57 35
100 1 3 5 11 9 18 5 6 6 16 2 21 -3 5 -1 12 5 16 15 9 12 91 -5 132 -9 20 -13
43 -11 50 3 7 1 13 -4 13 -5 0 -12 22 -16 50 -4 27 -10 50 -15 50 -5 0 -9 10
-9 23 1 26 -9 86 -17 107 -13 33 -15 48 -16 127 -1 44 -5 79 -9 77 -10 -7 1
80 14 101 3 6 9 33 13 60 4 28 11 55 17 62 5 7 7 16 4 22 -3 5 -3 11 1 13 19
8 64 119 61 152 -1 19 -4 33 -7 31 -2 -3 -14 6 -26 19 -13 14 -45 45 -73 69
-28 25 -48 48 -45 51 4 3 2 6 -4 6 -5 0 -20 9 -33 20 -18 16 -26 17 -44 8 -11
-6 -22 -11 -23 -10 -2 1 -20 -6 -40 -15 -21 -9 -46 -16 -55 -15 -10 0 -18 -2
-18 -6 0 -4 -11 -9 -25 -10 -14 -1 -25 3 -25 9 0 6 -9 9 -20 6 -22 -6 -100 21
-100 35 0 4 -6 8 -13 8 -12 0 -57 39 -84 73 -10 12 -40 15 -151 16 -129 2
-140 0 -168 -21z"/>
</g>
</svg>
