<svg width="664" height="1024" viewBox="0 0 664 1024" fill="none" xmlns="http://www.w3.org/2000/svg">
<g filter="url(#filter0_d)">
<path d="M-21.3367 465.511C-21.3367 462.198 -18.6504 459.511 -15.3367 459.511H48.3266C51.6403 459.511 54.3266 462.198 54.3266 465.511L54.3266 529.175C54.3266 532.488 51.6403 535.175 48.3266 535.175H-15.3367C-18.6504 535.175 -21.3367 532.488 -21.3367 529.175L-21.3367 465.511Z" fill="black"/>
<path d="M-21.3367 692.501C-21.3367 689.188 -18.6504 686.501 -15.3367 686.501H48.3266C51.6403 686.501 54.3266 689.188 54.3266 692.501L54.3266 756.165C54.3266 759.478 51.6403 762.165 48.3266 762.165H-15.3367C-18.6504 762.165 -21.3367 759.478 -21.3367 756.165L-21.3367 692.501Z" fill="white"/>
<path d="M-21.3367 919.491C-21.3367 916.178 -18.6504 913.491 -15.3367 913.491H48.3266C51.6403 913.491 54.3266 916.178 54.3266 919.491L54.3266 983.155C54.3266 986.468 51.6403 989.155 48.3266 989.155H-15.3367C-18.6504 989.155 -21.3367 986.468 -21.3367 983.155L-21.3367 919.491Z" fill="black"/>
<path d="M-21.3367 541.175C-21.3367 537.861 -18.6504 535.175 -15.3367 535.175H48.3266C51.6403 535.175 54.3266 537.861 54.3266 541.175L54.3266 604.838C54.3266 608.152 51.6403 610.838 48.3266 610.838H-15.3367C-18.6504 610.838 -21.3367 608.152 -21.3367 604.838L-21.3367 541.175Z" fill="white"/>
<path d="M-21.3367 768.165C-21.3367 764.851 -18.6504 762.165 -15.3367 762.165H48.3266C51.6403 762.165 54.3266 764.851 54.3266 768.165L54.3266 831.828C54.3266 835.142 51.6403 837.828 48.3266 837.828H-15.3367C-18.6504 837.828 -21.3367 835.142 -21.3367 831.828L-21.3367 768.165Z" fill="black"/>
<path d="M-21.3367 995.155C-21.3367 991.841 -18.6504 989.155 -15.3367 989.155H48.3266C51.6403 989.155 54.3266 991.841 54.3266 995.155L54.3266 1058.82C54.3266 1062.13 51.6403 1064.82 48.3266 1064.82H-15.3367C-18.6504 1064.82 -21.3367 1062.13 -21.3367 1058.82L-21.3367 995.155Z" fill="white"/>
<path d="M-21.3367 616.838C-21.3367 613.524 -18.6504 610.838 -15.3367 610.838H48.3266C51.6403 610.838 54.3266 613.524 54.3266 616.838L54.3266 680.501C54.3266 683.815 51.6403 686.501 48.3266 686.501H-15.3367C-18.6504 686.501 -21.3367 683.815 -21.3367 680.501L-21.3367 616.838Z" fill="black"/>
<path d="M-21.3367 843.828C-21.3367 840.514 -18.6504 837.828 -15.3367 837.828H48.3266C51.6403 837.828 54.3266 840.514 54.3266 843.828L54.3266 907.491C54.3266 910.805 51.6403 913.491 48.3266 913.491H-15.3367C-18.6504 913.491 -21.3367 910.805 -21.3367 907.491L-21.3367 843.828Z" fill="white"/>
<path d="M54.3266 465.511C54.3266 462.198 57.0129 459.511 60.3266 459.511H123.99C127.304 459.511 129.99 462.198 129.99 465.511V529.175C129.99 532.488 127.304 535.175 123.99 535.175H60.3266C57.0129 535.175 54.3266 532.488 54.3266 529.175L54.3266 465.511Z" fill="white"/>
<path d="M54.3266 692.501C54.3266 689.188 57.0129 686.501 60.3266 686.501H123.99C127.304 686.501 129.99 689.188 129.99 692.501V756.165C129.99 759.478 127.304 762.165 123.99 762.165H60.3266C57.0129 762.165 54.3266 759.478 54.3266 756.165L54.3266 692.501Z" fill="black"/>
<path d="M54.3266 919.491C54.3266 916.178 57.0129 913.491 60.3266 913.491H123.99C127.304 913.491 129.99 916.178 129.99 919.491V983.155C129.99 986.468 127.304 989.155 123.99 989.155H60.3266C57.0129 989.155 54.3266 986.468 54.3266 983.155L54.3266 919.491Z" fill="white"/>
<path d="M54.3266 541.175C54.3266 537.861 57.0129 535.175 60.3266 535.175H123.99C127.304 535.175 129.99 537.861 129.99 541.175V604.838C129.99 608.152 127.304 610.838 123.99 610.838H60.3266C57.0129 610.838 54.3266 608.152 54.3266 604.838L54.3266 541.175Z" fill="black"/>
<path d="M54.3266 768.165C54.3266 764.851 57.0129 762.165 60.3266 762.165H123.99C127.304 762.165 129.99 764.851 129.99 768.165V831.828C129.99 835.142 127.304 837.828 123.99 837.828H60.3266C57.0129 837.828 54.3266 835.142 54.3266 831.828L54.3266 768.165Z" fill="white"/>
<path d="M54.3266 995.155C54.3266 991.841 57.0129 989.155 60.3266 989.155H123.99C127.304 989.155 129.99 991.841 129.99 995.155V1058.82C129.99 1062.13 127.304 1064.82 123.99 1064.82H60.3266C57.0129 1064.82 54.3266 1062.13 54.3266 1058.82L54.3266 995.155Z" fill="black"/>
<path d="M54.3266 616.838C54.3266 613.524 57.0129 610.838 60.3266 610.838H123.99C127.304 610.838 129.99 613.524 129.99 616.838V680.501C129.99 683.815 127.304 686.501 123.99 686.501H60.3266C57.0129 686.501 54.3266 683.815 54.3266 680.501L54.3266 616.838Z" fill="white"/>
<path d="M54.3266 843.828C54.3266 840.514 57.0129 837.828 60.3266 837.828H123.99C127.304 837.828 129.99 840.514 129.99 843.828V907.491C129.99 910.805 127.304 913.491 123.99 913.491H60.3266C57.0129 913.491 54.3266 910.805 54.3266 907.491L54.3266 843.828Z" fill="black"/>
<path d="M129.99 465.511C129.99 462.198 132.676 459.511 135.99 459.511H199.653C202.967 459.511 205.653 462.198 205.653 465.511V529.175C205.653 532.488 202.967 535.175 199.653 535.175H135.99C132.676 535.175 129.99 532.488 129.99 529.175V465.511Z" fill="black"/>
<path d="M129.99 692.501C129.99 689.188 132.676 686.501 135.99 686.501H199.653C202.967 686.501 205.653 689.188 205.653 692.501V756.165C205.653 759.478 202.967 762.165 199.653 762.165H135.99C132.676 762.165 129.99 759.478 129.99 756.165V692.501Z" fill="white"/>
<path d="M129.99 919.491C129.99 916.178 132.676 913.491 135.99 913.491H199.653C202.967 913.491 205.653 916.178 205.653 919.491V983.155C205.653 986.468 202.967 989.155 199.653 989.155H135.99C132.676 989.155 129.99 986.468 129.99 983.155V919.491Z" fill="black"/>
<path d="M129.99 541.175C129.99 537.861 132.676 535.175 135.99 535.175H199.653C202.967 535.175 205.653 537.861 205.653 541.175V604.838C205.653 608.152 202.967 610.838 199.653 610.838H135.99C132.676 610.838 129.99 608.152 129.99 604.838V541.175Z" fill="white"/>
<path d="M129.99 768.165C129.99 764.851 132.676 762.165 135.99 762.165H199.653C202.967 762.165 205.653 764.851 205.653 768.165V831.828C205.653 835.142 202.967 837.828 199.653 837.828H135.99C132.676 837.828 129.99 835.142 129.99 831.828V768.165Z" fill="black"/>
<path d="M129.99 995.155C129.99 991.841 132.676 989.155 135.99 989.155H199.653C202.967 989.155 205.653 991.841 205.653 995.155V1058.82C205.653 1062.13 202.967 1064.82 199.653 1064.82H135.99C132.676 1064.82 129.99 1062.13 129.99 1058.82V995.155Z" fill="white"/>
<path d="M129.99 616.838C129.99 613.524 132.676 610.838 135.99 610.838H199.653C202.967 610.838 205.653 613.524 205.653 616.838V680.501C205.653 683.815 202.967 686.501 199.653 686.501H135.99C132.676 686.501 129.99 683.815 129.99 680.501V616.838Z" fill="black"/>
<path d="M129.99 843.828C129.99 840.514 132.676 837.828 135.99 837.828H199.653C202.967 837.828 205.653 840.514 205.653 843.828V907.491C205.653 910.805 202.967 913.491 199.653 913.491H135.99C132.676 913.491 129.99 910.805 129.99 907.491V843.828Z" fill="white"/>
<path d="M205.653 465.511C205.653 462.198 208.339 459.511 211.653 459.511H275.317C278.63 459.511 281.317 462.198 281.317 465.511V529.175C281.317 532.488 278.63 535.175 275.317 535.175H211.653C208.339 535.175 205.653 532.488 205.653 529.175V465.511Z" fill="white"/>
<path d="M205.653 692.501C205.653 689.188 208.339 686.501 211.653 686.501H275.317C278.63 686.501 281.317 689.188 281.317 692.501V756.165C281.317 759.478 278.63 762.165 275.317 762.165H211.653C208.339 762.165 205.653 759.478 205.653 756.165V692.501Z" fill="black"/>
<path d="M205.653 919.491C205.653 916.178 208.339 913.491 211.653 913.491H275.317C278.63 913.491 281.317 916.178 281.317 919.491V983.155C281.317 986.468 278.63 989.155 275.317 989.155H211.653C208.339 989.155 205.653 986.468 205.653 983.155V919.491Z" fill="white"/>
<path d="M205.653 541.175C205.653 537.861 208.339 535.175 211.653 535.175H275.317C278.63 535.175 281.317 537.861 281.317 541.175V604.838C281.317 608.152 278.63 610.838 275.317 610.838H211.653C208.339 610.838 205.653 608.152 205.653 604.838V541.175Z" fill="black"/>
<path d="M205.653 768.165C205.653 764.851 208.339 762.165 211.653 762.165H275.317C278.63 762.165 281.317 764.851 281.317 768.165V831.828C281.317 835.142 278.63 837.828 275.317 837.828H211.653C208.339 837.828 205.653 835.142 205.653 831.828V768.165Z" fill="white"/>
<path d="M205.653 995.155C205.653 991.841 208.339 989.155 211.653 989.155H275.317C278.63 989.155 281.317 991.841 281.317 995.155V1058.82C281.317 1062.13 278.63 1064.82 275.317 1064.82H211.653C208.339 1064.82 205.653 1062.13 205.653 1058.82V995.155Z" fill="black"/>
<path d="M205.653 616.838C205.653 613.524 208.339 610.838 211.653 610.838H275.317C278.63 610.838 281.317 613.524 281.317 616.838V680.501C281.317 683.815 278.63 686.501 275.317 686.501H211.653C208.339 686.501 205.653 683.815 205.653 680.501V616.838Z" fill="white"/>
<path d="M205.653 843.828C205.653 840.514 208.339 837.828 211.653 837.828H275.317C278.63 837.828 281.317 840.514 281.317 843.828V907.491C281.317 910.805 278.63 913.491 275.317 913.491H211.653C208.339 913.491 205.653 910.805 205.653 907.491V843.828Z" fill="black"/>
<path d="M281.317 465.511C281.317 462.198 284.003 459.511 287.317 459.511H350.98C354.294 459.511 356.98 462.198 356.98 465.511V529.175C356.98 532.488 354.294 535.175 350.98 535.175H287.317C284.003 535.175 281.317 532.488 281.317 529.175V465.511Z" fill="black"/>
<path d="M281.317 692.501C281.317 689.188 284.003 686.501 287.317 686.501H350.98C354.294 686.501 356.98 689.188 356.98 692.501V756.165C356.98 759.478 354.294 762.165 350.98 762.165H287.317C284.003 762.165 281.317 759.478 281.317 756.165V692.501Z" fill="white"/>
<path d="M281.317 919.491C281.317 916.178 284.003 913.491 287.317 913.491H350.98C354.294 913.491 356.98 916.178 356.98 919.491V983.155C356.98 986.468 354.294 989.155 350.98 989.155H287.317C284.003 989.155 281.317 986.468 281.317 983.155V919.491Z" fill="black"/>
<path d="M281.317 541.175C281.317 537.861 284.003 535.175 287.317 535.175H350.98C354.294 535.175 356.98 537.861 356.98 541.175V604.838C356.98 608.152 354.294 610.838 350.98 610.838H287.317C284.003 610.838 281.317 608.152 281.317 604.838V541.175Z" fill="white"/>
<path d="M281.317 768.164C281.317 764.851 284.003 762.164 287.317 762.164H350.98C354.294 762.164 356.98 764.851 356.98 768.164V831.828C356.98 835.142 354.294 837.828 350.98 837.828H287.317C284.003 837.828 281.317 835.142 281.317 831.828V768.164Z" fill="black"/>
<path d="M281.317 995.155C281.317 991.841 284.003 989.155 287.317 989.155H350.98C354.294 989.155 356.98 991.841 356.98 995.155V1058.82C356.98 1062.13 354.294 1064.82 350.98 1064.82H287.317C284.003 1064.82 281.317 1062.13 281.317 1058.82V995.155Z" fill="white"/>
<path d="M281.317 616.838C281.317 613.524 284.003 610.838 287.317 610.838H350.98C354.294 610.838 356.98 613.524 356.98 616.838V680.501C356.98 683.815 354.294 686.501 350.98 686.501H287.317C284.003 686.501 281.317 683.815 281.317 680.501V616.838Z" fill="black"/>
<path d="M281.317 843.828C281.317 840.514 284.003 837.828 287.317 837.828H350.98C354.294 837.828 356.98 840.514 356.98 843.828V907.491C356.98 910.805 354.294 913.491 350.98 913.491H287.317C284.003 913.491 281.317 910.805 281.317 907.491V843.828Z" fill="white"/>
<path d="M356.98 465.511C356.98 462.198 359.666 459.511 362.98 459.511H426.643C429.957 459.511 432.643 462.198 432.643 465.511V529.175C432.643 532.488 429.957 535.175 426.643 535.175H362.98C359.666 535.175 356.98 532.488 356.98 529.175V465.511Z" fill="white"/>
<path d="M356.98 692.501C356.98 689.188 359.666 686.501 362.98 686.501H426.643C429.957 686.501 432.643 689.188 432.643 692.501V756.165C432.643 759.478 429.957 762.165 426.643 762.165H362.98C359.666 762.165 356.98 759.478 356.98 756.165V692.501Z" fill="black"/>
<path d="M356.98 919.491C356.98 916.178 359.666 913.491 362.98 913.491H426.643C429.957 913.491 432.643 916.178 432.643 919.491V983.155C432.643 986.468 429.957 989.155 426.643 989.155H362.98C359.666 989.155 356.98 986.468 356.98 983.155V919.491Z" fill="white"/>
<path d="M356.98 541.175C356.98 537.861 359.666 535.175 362.98 535.175H426.643C429.957 535.175 432.643 537.861 432.643 541.175V604.838C432.643 608.152 429.957 610.838 426.643 610.838H362.98C359.666 610.838 356.98 608.152 356.98 604.838V541.175Z" fill="black"/>
<path d="M356.98 768.164C356.98 764.851 359.666 762.164 362.98 762.164H426.643C429.957 762.164 432.643 764.851 432.643 768.164V831.828C432.643 835.142 429.957 837.828 426.643 837.828H362.98C359.666 837.828 356.98 835.142 356.98 831.828V768.164Z" fill="white"/>
<path d="M356.98 995.155C356.98 991.841 359.666 989.155 362.98 989.155H426.643C429.957 989.155 432.643 991.841 432.643 995.155V1058.82C432.643 1062.13 429.957 1064.82 426.643 1064.82H362.98C359.666 1064.82 356.98 1062.13 356.98 1058.82V995.155Z" fill="black"/>
<path d="M356.98 616.838C356.98 613.524 359.666 610.838 362.98 610.838H426.643C429.957 610.838 432.643 613.524 432.643 616.838V680.501C432.643 683.815 429.957 686.501 426.643 686.501H362.98C359.666 686.501 356.98 683.815 356.98 680.501V616.838Z" fill="white"/>
<path d="M356.98 843.828C356.98 840.514 359.666 837.828 362.98 837.828H426.643C429.957 837.828 432.643 840.514 432.643 843.828V907.491C432.643 910.805 429.957 913.491 426.643 913.491H362.98C359.666 913.491 356.98 910.805 356.98 907.491V843.828Z" fill="black"/>
<path d="M432.643 465.511C432.643 462.198 435.329 459.511 438.643 459.511H502.306C505.62 459.511 508.306 462.198 508.306 465.511V529.175C508.306 532.488 505.62 535.175 502.306 535.175H438.643C435.329 535.175 432.643 532.488 432.643 529.175V465.511Z" fill="black"/>
<path d="M432.643 692.501C432.643 689.188 435.329 686.501 438.643 686.501H502.306C505.62 686.501 508.306 689.188 508.306 692.501V756.165C508.306 759.478 505.62 762.165 502.306 762.165H438.643C435.329 762.165 432.643 759.478 432.643 756.165V692.501Z" fill="white"/>
<path d="M432.643 919.491C432.643 916.178 435.329 913.491 438.643 913.491H502.306C505.62 913.491 508.306 916.178 508.306 919.491V983.155C508.306 986.468 505.62 989.155 502.306 989.155H438.643C435.329 989.155 432.643 986.468 432.643 983.155V919.491Z" fill="black"/>
<path d="M432.643 541.175C432.643 537.861 435.329 535.175 438.643 535.175H502.306C505.62 535.175 508.306 537.861 508.306 541.175V604.838C508.306 608.152 505.62 610.838 502.306 610.838H438.643C435.329 610.838 432.643 608.152 432.643 604.838V541.175Z" fill="white"/>
<path d="M432.643 768.165C432.643 764.851 435.329 762.165 438.643 762.165H502.306C505.62 762.165 508.306 764.851 508.306 768.165V831.828C508.306 835.142 505.62 837.828 502.306 837.828H438.643C435.329 837.828 432.643 835.142 432.643 831.828V768.165Z" fill="black"/>
<path d="M432.643 995.155C432.643 991.841 435.329 989.155 438.643 989.155H502.306C505.62 989.155 508.306 991.841 508.306 995.155V1058.82C508.306 1062.13 505.62 1064.82 502.306 1064.82H438.643C435.329 1064.82 432.643 1062.13 432.643 1058.82V995.155Z" fill="white"/>
<path d="M432.643 616.838C432.643 613.524 435.329 610.838 438.643 610.838H502.306C505.62 610.838 508.306 613.524 508.306 616.838V680.501C508.306 683.815 505.62 686.501 502.306 686.501H438.643C435.329 686.501 432.643 683.815 432.643 680.501V616.838Z" fill="black"/>
<path d="M432.643 843.828C432.643 840.514 435.329 837.828 438.643 837.828H502.306C505.62 837.828 508.306 840.514 508.306 843.828V907.491C508.306 910.805 505.62 913.491 502.306 913.491H438.643C435.329 913.491 432.643 910.805 432.643 907.491V843.828Z" fill="white"/>
<path d="M508.306 465.511C508.306 462.198 510.993 459.511 514.306 459.511H577.97C581.283 459.511 583.97 462.198 583.97 465.511V529.175C583.97 532.488 581.283 535.175 577.97 535.175H514.306C510.993 535.175 508.306 532.488 508.306 529.175V465.511Z" fill="white"/>
<path d="M508.307 692.501C508.307 689.188 510.993 686.501 514.307 686.501H577.97C581.284 686.501 583.97 689.188 583.97 692.501V756.165C583.97 759.478 581.284 762.165 577.97 762.165H514.307C510.993 762.165 508.307 759.478 508.307 756.165V692.501Z" fill="black"/>
<path d="M508.306 919.491C508.306 916.178 510.993 913.491 514.306 913.491H577.97C581.283 913.491 583.97 916.178 583.97 919.491V983.155C583.97 986.468 581.283 989.155 577.97 989.155H514.306C510.993 989.155 508.306 986.468 508.306 983.155V919.491Z" fill="white"/>
<path d="M508.306 541.175C508.306 537.861 510.993 535.175 514.306 535.175H577.97C581.283 535.175 583.97 537.861 583.97 541.175V604.838C583.97 608.152 581.283 610.838 577.97 610.838H514.306C510.993 610.838 508.306 608.152 508.306 604.838V541.175Z" fill="black"/>
<path d="M508.306 768.164C508.306 764.851 510.993 762.164 514.306 762.164H577.97C581.283 762.164 583.97 764.851 583.97 768.164V831.828C583.97 835.142 581.283 837.828 577.97 837.828H514.306C510.993 837.828 508.306 835.142 508.306 831.828V768.164Z" fill="white"/>
<path d="M508.306 995.155C508.306 991.841 510.993 989.155 514.306 989.155H577.97C581.283 989.155 583.97 991.841 583.97 995.155V1058.82C583.97 1062.13 581.283 1064.82 577.97 1064.82H514.306C510.993 1064.82 508.306 1062.13 508.306 1058.82V995.155Z" fill="black"/>
<path d="M508.306 616.838C508.306 613.524 510.993 610.838 514.306 610.838H577.97C581.283 610.838 583.97 613.524 583.97 616.838V680.501C583.97 683.815 581.283 686.501 577.97 686.501H514.306C510.993 686.501 508.306 683.815 508.306 680.501V616.838Z" fill="white"/>
<path d="M508.306 843.828C508.306 840.514 510.993 837.828 514.306 837.828H577.97C581.283 837.828 583.97 840.514 583.97 843.828V907.491C583.97 910.805 581.283 913.491 577.97 913.491H514.306C510.993 913.491 508.306 910.805 508.306 907.491V843.828Z" fill="black"/>
<path d="M583.97 465.511C583.97 462.198 586.656 459.511 589.97 459.511H653.633C656.947 459.511 659.633 462.198 659.633 465.511V529.175C659.633 532.488 656.947 535.175 653.633 535.175H589.97C586.656 535.175 583.97 532.488 583.97 529.175V465.511Z" fill="black"/>
<path d="M583.97 692.501C583.97 689.188 586.656 686.501 589.97 686.501H653.633C656.947 686.501 659.633 689.188 659.633 692.501V756.165C659.633 759.478 656.947 762.165 653.633 762.165H589.97C586.656 762.165 583.97 759.478 583.97 756.165V692.501Z" fill="white"/>
<path d="M583.97 919.491C583.97 916.178 586.656 913.491 589.97 913.491H653.633C656.947 913.491 659.633 916.178 659.633 919.491V983.155C659.633 986.468 656.947 989.155 653.633 989.155H589.97C586.656 989.155 583.97 986.468 583.97 983.155V919.491Z" fill="black"/>
<path d="M583.97 541.175C583.97 537.861 586.656 535.175 589.97 535.175H653.633C656.947 535.175 659.633 537.861 659.633 541.175V604.838C659.633 608.152 656.947 610.838 653.633 610.838H589.97C586.656 610.838 583.97 608.152 583.97 604.838V541.175Z" fill="white"/>
<path d="M583.97 768.164C583.97 764.851 586.656 762.164 589.97 762.164H653.633C656.947 762.164 659.633 764.851 659.633 768.164V831.828C659.633 835.142 656.947 837.828 653.633 837.828H589.97C586.656 837.828 583.97 835.142 583.97 831.828V768.164Z" fill="black"/>
<path d="M583.97 995.155C583.97 991.841 586.656 989.155 589.97 989.155H653.633C656.947 989.155 659.633 991.841 659.633 995.155V1058.82C659.633 1062.13 656.947 1064.82 653.633 1064.82H589.97C586.656 1064.82 583.97 1062.13 583.97 1058.82V995.155Z" fill="white"/>
<path d="M583.97 616.838C583.97 613.524 586.656 610.838 589.97 610.838H653.633C656.947 610.838 659.633 613.524 659.633 616.838V680.501C659.633 683.815 656.947 686.501 653.633 686.501H589.97C586.656 686.501 583.97 683.815 583.97 680.501V616.838Z" fill="black"/>
<path d="M583.97 843.828C583.97 840.514 586.656 837.828 589.97 837.828H653.633C656.947 837.828 659.633 840.514 659.633 843.828V907.491C659.633 910.805 656.947 913.491 653.633 913.491H589.97C586.656 913.491 583.97 910.805 583.97 907.491V843.828Z" fill="white"/>
<path d="M-21.3367 85.9899C-21.3367 82.6762 -18.6504 79.9899 -15.3367 79.9899H48.3266C51.6403 79.9899 54.3266 82.6762 54.3266 85.9899L54.3266 149.653C54.3266 152.967 51.6403 155.653 48.3266 155.653H-15.3367C-18.6504 155.653 -21.3367 152.967 -21.3367 149.653L-21.3367 85.9899Z" fill="white"/>
<path d="M-21.3367 312.98C-21.3367 309.666 -18.6504 306.98 -15.3367 306.98H48.3266C51.6403 306.98 54.3266 309.666 54.3266 312.98L54.3266 376.643C54.3266 379.957 51.6403 382.643 48.3266 382.643H-15.3367C-18.6504 382.643 -21.3367 379.957 -21.3367 376.643L-21.3367 312.98Z" fill="black"/>
<path d="M-21.3367 -65.3367C-21.3367 -68.6504 -18.6504 -71.3367 -15.3367 -71.3367H48.3266C51.6403 -71.3367 54.3266 -68.6504 54.3266 -65.3367L54.3266 -1.67337C54.3266 1.64034 51.6403 4.32663 48.3266 4.32663H-15.3367C-18.6504 4.32663 -21.3367 1.64034 -21.3367 -1.67337L-21.3367 -65.3367Z" fill="white"/>
<path d="M-21.3367 161.653C-21.3367 158.34 -18.6504 155.653 -15.3367 155.653H48.3266C51.6403 155.653 54.3266 158.34 54.3266 161.653L54.3266 225.317C54.3266 228.63 51.6403 231.317 48.3266 231.317H-15.3367C-18.6504 231.317 -21.3367 228.63 -21.3367 225.317L-21.3367 161.653Z" fill="black"/>
<path d="M-21.3367 388.643C-21.3367 385.329 -18.6504 382.643 -15.3367 382.643H48.3266C51.6403 382.643 54.3266 385.329 54.3266 388.643L54.3266 452.306C54.3266 455.62 51.6403 458.306 48.3266 458.306H-15.3367C-18.6504 458.306 -21.3367 455.62 -21.3367 452.306L-21.3367 388.643Z" fill="white"/>
<path d="M-21.3367 10.3266C-21.3367 7.01291 -18.6504 4.32661 -15.3367 4.32661L48.3266 4.32661C51.6403 4.32661 54.3266 7.01291 54.3266 10.3266L54.3266 73.9899C54.3266 77.3036 51.6403 79.9899 48.3266 79.9899H-15.3367C-18.6504 79.9899 -21.3367 77.3036 -21.3367 73.9899L-21.3367 10.3266Z" fill="black"/>
<path d="M-21.3367 237.317C-21.3367 234.003 -18.6504 231.317 -15.3367 231.317H48.3266C51.6403 231.317 54.3266 234.003 54.3266 237.317L54.3266 300.98C54.3266 304.294 51.6403 306.98 48.3266 306.98H-15.3367C-18.6504 306.98 -21.3367 304.294 -21.3367 300.98L-21.3367 237.317Z" fill="white"/>
<path d="M-21.3367 464.307C-21.3367 460.993 -18.6504 458.307 -15.3367 458.307H48.3266C51.6403 458.307 54.3266 460.993 54.3266 464.307L54.3266 527.97C54.3266 531.284 51.6403 533.97 48.3266 533.97H-15.3367C-18.6504 533.97 -21.3367 531.284 -21.3367 527.97L-21.3367 464.307Z" fill="black"/>
<path d="M54.3266 85.9899C54.3266 82.6762 57.0129 79.9899 60.3266 79.9899H123.99C127.304 79.9899 129.99 82.6762 129.99 85.9899V149.653C129.99 152.967 127.304 155.653 123.99 155.653H60.3266C57.0129 155.653 54.3266 152.967 54.3266 149.653L54.3266 85.9899Z" fill="black"/>
<path d="M54.3266 312.98C54.3266 309.666 57.0129 306.98 60.3266 306.98H123.99C127.304 306.98 129.99 309.666 129.99 312.98V376.643C129.99 379.957 127.304 382.643 123.99 382.643H60.3266C57.0129 382.643 54.3266 379.957 54.3266 376.643L54.3266 312.98Z" fill="white"/>
<path d="M54.3266 -65.3367C54.3266 -68.6504 57.0129 -71.3367 60.3266 -71.3367H123.99C127.304 -71.3367 129.99 -68.6504 129.99 -65.3367V-1.67337C129.99 1.64034 127.304 4.32663 123.99 4.32663H60.3266C57.0129 4.32663 54.3266 1.64034 54.3266 -1.67337L54.3266 -65.3367Z" fill="black"/>
<path d="M54.3266 161.653C54.3266 158.34 57.0129 155.653 60.3266 155.653H123.99C127.304 155.653 129.99 158.34 129.99 161.653V225.317C129.99 228.63 127.304 231.317 123.99 231.317H60.3266C57.0129 231.317 54.3266 228.63 54.3266 225.317L54.3266 161.653Z" fill="white"/>
<path d="M54.3266 388.643C54.3266 385.33 57.0129 382.643 60.3266 382.643H123.99C127.304 382.643 129.99 385.33 129.99 388.643V452.307C129.99 455.62 127.304 458.307 123.99 458.307H60.3266C57.0129 458.307 54.3266 455.62 54.3266 452.307L54.3266 388.643Z" fill="black"/>
<path d="M54.3266 10.3266C54.3266 7.01291 57.0129 4.32661 60.3266 4.32661L123.99 4.32661C127.304 4.32661 129.99 7.01291 129.99 10.3266V73.9899C129.99 77.3036 127.304 79.9899 123.99 79.9899H60.3266C57.0129 79.9899 54.3266 77.3036 54.3266 73.9899L54.3266 10.3266Z" fill="white"/>
<path d="M54.3267 237.317C54.3267 234.003 57.013 231.317 60.3267 231.317H123.99C127.304 231.317 129.99 234.003 129.99 237.317V300.98C129.99 304.294 127.304 306.98 123.99 306.98H60.3267C57.013 306.98 54.3267 304.294 54.3267 300.98L54.3267 237.317Z" fill="black"/>
<path d="M54.3266 464.307C54.3266 460.993 57.0129 458.307 60.3266 458.307H123.99C127.304 458.307 129.99 460.993 129.99 464.307V527.97C129.99 531.284 127.304 533.97 123.99 533.97H60.3266C57.0129 533.97 54.3266 531.284 54.3266 527.97L54.3266 464.307Z" fill="white"/>
<path d="M129.99 85.9899C129.99 82.6762 132.676 79.9899 135.99 79.9899H199.653C202.967 79.9899 205.653 82.6762 205.653 85.9899V149.653C205.653 152.967 202.967 155.653 199.653 155.653H135.99C132.676 155.653 129.99 152.967 129.99 149.653V85.9899Z" fill="white"/>
<path d="M129.99 312.98C129.99 309.666 132.676 306.98 135.99 306.98H199.653C202.967 306.98 205.653 309.666 205.653 312.98V376.643C205.653 379.957 202.967 382.643 199.653 382.643H135.99C132.676 382.643 129.99 379.957 129.99 376.643V312.98Z" fill="black"/>
<path d="M129.99 -65.3367C129.99 -68.6504 132.676 -71.3367 135.99 -71.3367H199.653C202.967 -71.3367 205.653 -68.6504 205.653 -65.3367V-1.67337C205.653 1.64034 202.967 4.32663 199.653 4.32663H135.99C132.676 4.32663 129.99 1.64034 129.99 -1.67337V-65.3367Z" fill="white"/>
<path d="M129.99 161.653C129.99 158.34 132.676 155.653 135.99 155.653H199.653C202.967 155.653 205.653 158.34 205.653 161.653V225.317C205.653 228.63 202.967 231.317 199.653 231.317H135.99C132.676 231.317 129.99 228.63 129.99 225.317V161.653Z" fill="black"/>
<path d="M129.99 388.643C129.99 385.329 132.676 382.643 135.99 382.643H199.653C202.967 382.643 205.653 385.329 205.653 388.643V452.306C205.653 455.62 202.967 458.306 199.653 458.306H135.99C132.676 458.306 129.99 455.62 129.99 452.306V388.643Z" fill="white"/>
<path d="M129.99 10.3266C129.99 7.01291 132.676 4.32661 135.99 4.32661L199.653 4.32661C202.967 4.32661 205.653 7.01291 205.653 10.3266V73.9899C205.653 77.3036 202.967 79.9899 199.653 79.9899H135.99C132.676 79.9899 129.99 77.3036 129.99 73.9899V10.3266Z" fill="black"/>
<path d="M129.99 237.317C129.99 234.003 132.676 231.317 135.99 231.317H199.653C202.967 231.317 205.653 234.003 205.653 237.317V300.98C205.653 304.294 202.967 306.98 199.653 306.98H135.99C132.676 306.98 129.99 304.294 129.99 300.98V237.317Z" fill="white"/>
<path d="M129.99 464.307C129.99 460.993 132.676 458.307 135.99 458.307H199.653C202.967 458.307 205.653 460.993 205.653 464.307V527.97C205.653 531.284 202.967 533.97 199.653 533.97H135.99C132.676 533.97 129.99 531.284 129.99 527.97V464.307Z" fill="black"/>
<path d="M205.653 85.9899C205.653 82.6762 208.339 79.9899 211.653 79.9899H275.317C278.63 79.9899 281.317 82.6762 281.317 85.9899V149.653C281.317 152.967 278.63 155.653 275.317 155.653H211.653C208.339 155.653 205.653 152.967 205.653 149.653V85.9899Z" fill="black"/>
<path d="M205.653 312.98C205.653 309.666 208.339 306.98 211.653 306.98H275.317C278.63 306.98 281.317 309.666 281.317 312.98V376.643C281.317 379.957 278.63 382.643 275.317 382.643H211.653C208.339 382.643 205.653 379.957 205.653 376.643V312.98Z" fill="white"/>
<path d="M205.653 -65.3367C205.653 -68.6504 208.339 -71.3367 211.653 -71.3367H275.317C278.63 -71.3367 281.317 -68.6504 281.317 -65.3367V-1.67337C281.317 1.64034 278.63 4.32663 275.317 4.32663H211.653C208.339 4.32663 205.653 1.64034 205.653 -1.67337V-65.3367Z" fill="black"/>
<path d="M205.653 161.653C205.653 158.34 208.339 155.653 211.653 155.653H275.317C278.63 155.653 281.317 158.34 281.317 161.653V225.317C281.317 228.63 278.63 231.317 275.317 231.317H211.653C208.339 231.317 205.653 228.63 205.653 225.317V161.653Z" fill="white"/>
<path d="M205.653 388.643C205.653 385.33 208.339 382.643 211.653 382.643H275.317C278.63 382.643 281.317 385.33 281.317 388.643V452.307C281.317 455.62 278.63 458.307 275.317 458.307H211.653C208.339 458.307 205.653 455.62 205.653 452.307V388.643Z" fill="black"/>
<path d="M205.653 10.3266C205.653 7.01291 208.339 4.32661 211.653 4.32661L275.317 4.32661C278.63 4.32661 281.317 7.01291 281.317 10.3266V73.9899C281.317 77.3036 278.63 79.9899 275.317 79.9899H211.653C208.339 79.9899 205.653 77.3036 205.653 73.9899V10.3266Z" fill="white"/>
<path d="M205.653 237.317C205.653 234.003 208.34 231.317 211.653 231.317H275.317C278.63 231.317 281.317 234.003 281.317 237.317V300.98C281.317 304.294 278.63 306.98 275.317 306.98H211.653C208.34 306.98 205.653 304.294 205.653 300.98V237.317Z" fill="black"/>
<path d="M205.653 464.306C205.653 460.993 208.339 458.306 211.653 458.306H275.317C278.63 458.306 281.317 460.993 281.317 464.306V527.97C281.317 531.283 278.63 533.97 275.317 533.97H211.653C208.339 533.97 205.653 531.283 205.653 527.97V464.306Z" fill="white"/>
<path d="M281.317 85.9899C281.317 82.6762 284.003 79.9899 287.317 79.9899H350.98C354.294 79.9899 356.98 82.6762 356.98 85.9899V149.653C356.98 152.967 354.294 155.653 350.98 155.653H287.317C284.003 155.653 281.317 152.967 281.317 149.653V85.9899Z" fill="white"/>
<path d="M281.317 312.98C281.317 309.666 284.003 306.98 287.317 306.98H350.98C354.294 306.98 356.98 309.666 356.98 312.98V376.643C356.98 379.957 354.294 382.643 350.98 382.643H287.317C284.003 382.643 281.317 379.957 281.317 376.643V312.98Z" fill="black"/>
<path d="M281.317 -65.3367C281.317 -68.6504 284.003 -71.3367 287.317 -71.3367H350.98C354.294 -71.3367 356.98 -68.6504 356.98 -65.3367V-1.67337C356.98 1.64034 354.294 4.32663 350.98 4.32663H287.317C284.003 4.32663 281.317 1.64034 281.317 -1.67337V-65.3367Z" fill="white"/>
<path d="M281.317 161.653C281.317 158.34 284.003 155.653 287.317 155.653H350.98C354.294 155.653 356.98 158.34 356.98 161.653V225.317C356.98 228.63 354.294 231.317 350.98 231.317H287.317C284.003 231.317 281.317 228.63 281.317 225.317V161.653Z" fill="black"/>
<path d="M281.317 388.643C281.317 385.33 284.003 382.643 287.317 382.643H350.98C354.294 382.643 356.98 385.33 356.98 388.643V452.307C356.98 455.62 354.294 458.307 350.98 458.307H287.317C284.003 458.307 281.317 455.62 281.317 452.307V388.643Z" fill="white"/>
<path d="M281.317 10.3266C281.317 7.01291 284.003 4.32661 287.317 4.32661L350.98 4.32661C354.294 4.32661 356.98 7.01291 356.98 10.3266V73.9899C356.98 77.3036 354.294 79.9899 350.98 79.9899H287.317C284.003 79.9899 281.317 77.3036 281.317 73.9899V10.3266Z" fill="black"/>
<path d="M281.317 237.317C281.317 234.003 284.003 231.317 287.317 231.317H350.98C354.294 231.317 356.98 234.003 356.98 237.317V300.98C356.98 304.294 354.294 306.98 350.98 306.98H287.317C284.003 306.98 281.317 304.294 281.317 300.98V237.317Z" fill="white"/>
<path d="M281.317 464.306C281.317 460.993 284.003 458.306 287.317 458.306H350.98C354.294 458.306 356.98 460.993 356.98 464.306V527.97C356.98 531.283 354.294 533.97 350.98 533.97H287.317C284.003 533.97 281.317 531.283 281.317 527.97V464.306Z" fill="black"/>
<path d="M356.98 85.9899C356.98 82.6762 359.666 79.9899 362.98 79.9899H426.643C429.957 79.9899 432.643 82.6762 432.643 85.9899V149.653C432.643 152.967 429.957 155.653 426.643 155.653H362.98C359.666 155.653 356.98 152.967 356.98 149.653V85.9899Z" fill="black"/>
<path d="M356.98 312.98C356.98 309.666 359.666 306.98 362.98 306.98H426.643C429.957 306.98 432.643 309.666 432.643 312.98V376.643C432.643 379.957 429.957 382.643 426.643 382.643H362.98C359.666 382.643 356.98 379.957 356.98 376.643V312.98Z" fill="white"/>
<path d="M356.98 -65.3367C356.98 -68.6504 359.666 -71.3367 362.98 -71.3367H426.643C429.957 -71.3367 432.643 -68.6504 432.643 -65.3367V-1.67337C432.643 1.64034 429.957 4.32663 426.643 4.32663H362.98C359.666 4.32663 356.98 1.64034 356.98 -1.67337V-65.3367Z" fill="black"/>
<path d="M356.98 161.653C356.98 158.34 359.666 155.653 362.98 155.653H426.643C429.957 155.653 432.643 158.34 432.643 161.653V225.317C432.643 228.63 429.957 231.317 426.643 231.317H362.98C359.666 231.317 356.98 228.63 356.98 225.317V161.653Z" fill="white"/>
<path d="M356.98 388.643C356.98 385.329 359.666 382.643 362.98 382.643H426.643C429.957 382.643 432.643 385.329 432.643 388.643V452.306C432.643 455.62 429.957 458.306 426.643 458.306H362.98C359.666 458.306 356.98 455.62 356.98 452.306V388.643Z" fill="black"/>
<path d="M356.98 10.3266C356.98 7.01291 359.666 4.32661 362.98 4.32661L426.643 4.32661C429.957 4.32661 432.643 7.01291 432.643 10.3266V73.9899C432.643 77.3036 429.957 79.9899 426.643 79.9899H362.98C359.666 79.9899 356.98 77.3036 356.98 73.9899V10.3266Z" fill="white"/>
<path d="M356.98 237.317C356.98 234.003 359.666 231.317 362.98 231.317H426.643C429.957 231.317 432.643 234.003 432.643 237.317V300.98C432.643 304.294 429.957 306.98 426.643 306.98H362.98C359.666 306.98 356.98 304.294 356.98 300.98V237.317Z" fill="black"/>
<path d="M356.98 464.306C356.98 460.993 359.666 458.306 362.98 458.306H426.643C429.957 458.306 432.643 460.993 432.643 464.306V527.97C432.643 531.283 429.957 533.97 426.643 533.97H362.98C359.666 533.97 356.98 531.283 356.98 527.97V464.306Z" fill="white"/>
<path d="M432.643 85.9899C432.643 82.6762 435.329 79.9899 438.643 79.9899H502.306C505.62 79.9899 508.306 82.6762 508.306 85.9899V149.653C508.306 152.967 505.62 155.653 502.306 155.653H438.643C435.329 155.653 432.643 152.967 432.643 149.653V85.9899Z" fill="white"/>
<path d="M432.643 312.98C432.643 309.666 435.329 306.98 438.643 306.98H502.306C505.62 306.98 508.306 309.666 508.306 312.98V376.643C508.306 379.957 505.62 382.643 502.306 382.643H438.643C435.329 382.643 432.643 379.957 432.643 376.643V312.98Z" fill="black"/>
<path d="M432.643 -65.3367C432.643 -68.6504 435.329 -71.3367 438.643 -71.3367H502.306C505.62 -71.3367 508.306 -68.6504 508.306 -65.3367V-1.67337C508.306 1.64034 505.62 4.32663 502.306 4.32663H438.643C435.329 4.32663 432.643 1.64034 432.643 -1.67337V-65.3367Z" fill="white"/>
<path d="M432.643 161.653C432.643 158.34 435.329 155.653 438.643 155.653H502.306C505.62 155.653 508.306 158.34 508.306 161.653V225.317C508.306 228.63 505.62 231.317 502.306 231.317H438.643C435.329 231.317 432.643 228.63 432.643 225.317V161.653Z" fill="black"/>
<path d="M432.643 388.643C432.643 385.329 435.329 382.643 438.643 382.643H502.306C505.62 382.643 508.306 385.329 508.306 388.643V452.306C508.306 455.62 505.62 458.306 502.306 458.306H438.643C435.329 458.306 432.643 455.62 432.643 452.306V388.643Z" fill="white"/>
<path d="M432.643 10.3267C432.643 7.01295 435.329 4.32666 438.643 4.32666L502.306 4.32666C505.62 4.32666 508.306 7.01295 508.306 10.3267V73.99C508.306 77.3037 505.62 79.99 502.306 79.99H438.643C435.329 79.99 432.643 77.3037 432.643 73.99V10.3267Z" fill="black"/>
<path d="M432.643 237.317C432.643 234.003 435.329 231.317 438.643 231.317H502.306C505.62 231.317 508.306 234.003 508.306 237.317V300.98C508.306 304.294 505.62 306.98 502.306 306.98H438.643C435.329 306.98 432.643 304.294 432.643 300.98V237.317Z" fill="white"/>
<path d="M432.643 464.307C432.643 460.993 435.329 458.307 438.643 458.307H502.306C505.62 458.307 508.306 460.993 508.306 464.307V527.97C508.306 531.284 505.62 533.97 502.306 533.97H438.643C435.329 533.97 432.643 531.284 432.643 527.97V464.307Z" fill="black"/>
<path d="M508.307 85.9899C508.307 82.6762 510.993 79.9899 514.307 79.9899H577.97C581.284 79.9899 583.97 82.6762 583.97 85.9899V149.653C583.97 152.967 581.284 155.653 577.97 155.653H514.307C510.993 155.653 508.307 152.967 508.307 149.653V85.9899Z" fill="black"/>
<path d="M508.306 312.98C508.306 309.666 510.993 306.98 514.306 306.98H577.97C581.283 306.98 583.97 309.666 583.97 312.98V376.643C583.97 379.957 581.283 382.643 577.97 382.643H514.306C510.993 382.643 508.306 379.957 508.306 376.643V312.98Z" fill="white"/>
<path d="M508.307 -65.3367C508.307 -68.6504 510.993 -71.3367 514.307 -71.3367H577.97C581.284 -71.3367 583.97 -68.6504 583.97 -65.3367V-1.67341C583.97 1.6403 581.284 4.32659 577.97 4.32659H514.307C510.993 4.32659 508.307 1.6403 508.307 -1.67341V-65.3367Z" fill="black"/>
<path d="M508.306 161.653C508.306 158.34 510.993 155.653 514.306 155.653H577.97C581.283 155.653 583.97 158.34 583.97 161.653V225.317C583.97 228.63 581.283 231.317 577.97 231.317H514.306C510.993 231.317 508.306 228.63 508.306 225.317V161.653Z" fill="white"/>
<path d="M508.306 388.643C508.306 385.33 510.993 382.643 514.306 382.643H577.97C581.283 382.643 583.97 385.33 583.97 388.643V452.307C583.97 455.62 581.283 458.307 577.97 458.307H514.306C510.993 458.307 508.306 455.62 508.306 452.307V388.643Z" fill="black"/>
<path d="M508.307 10.3266C508.307 7.01291 510.993 4.32661 514.307 4.32661L577.97 4.32661C581.284 4.32661 583.97 7.01291 583.97 10.3266V73.9899C583.97 77.3036 581.284 79.9899 577.97 79.9899H514.307C510.993 79.9899 508.307 77.3036 508.307 73.9899V10.3266Z" fill="white"/>
<path d="M508.306 237.317C508.306 234.003 510.993 231.317 514.306 231.317H577.97C581.283 231.317 583.97 234.003 583.97 237.317V300.98C583.97 304.294 581.283 306.98 577.97 306.98H514.306C510.993 306.98 508.306 304.294 508.306 300.98V237.317Z" fill="black"/>
<path d="M508.306 464.306C508.306 460.993 510.993 458.306 514.306 458.306H577.97C581.283 458.306 583.97 460.993 583.97 464.306V527.97C583.97 531.283 581.283 533.97 577.97 533.97H514.306C510.993 533.97 508.306 531.283 508.306 527.97V464.306Z" fill="white"/>
<path d="M583.97 85.9899C583.97 82.6762 586.656 79.9899 589.97 79.9899H653.633C656.947 79.9899 659.633 82.6762 659.633 85.9899V149.653C659.633 152.967 656.947 155.653 653.633 155.653H589.97C586.656 155.653 583.97 152.967 583.97 149.653V85.9899Z" fill="white"/>
<path d="M583.97 312.98C583.97 309.666 586.656 306.98 589.97 306.98H653.633C656.947 306.98 659.633 309.666 659.633 312.98V376.643C659.633 379.957 656.947 382.643 653.633 382.643H589.97C586.656 382.643 583.97 379.957 583.97 376.643V312.98Z" fill="black"/>
<path d="M583.97 -65.3367C583.97 -68.6504 586.656 -71.3367 589.97 -71.3367H653.633C656.947 -71.3367 659.633 -68.6504 659.633 -65.3367V-1.67337C659.633 1.64034 656.947 4.32663 653.633 4.32663H589.97C586.656 4.32663 583.97 1.64034 583.97 -1.67337V-65.3367Z" fill="white"/>
<path d="M583.97 161.653C583.97 158.34 586.656 155.653 589.97 155.653H653.633C656.947 155.653 659.633 158.34 659.633 161.653V225.317C659.633 228.63 656.947 231.317 653.633 231.317H589.97C586.656 231.317 583.97 228.63 583.97 225.317V161.653Z" fill="black"/>
<path d="M583.97 388.643C583.97 385.329 586.656 382.643 589.97 382.643H653.633C656.947 382.643 659.633 385.329 659.633 388.643V452.306C659.633 455.62 656.947 458.306 653.633 458.306H589.97C586.656 458.306 583.97 455.62 583.97 452.306V388.643Z" fill="white"/>
<path d="M583.97 10.3266C583.97 7.01291 586.656 4.32661 589.97 4.32661L653.633 4.32661C656.947 4.32661 659.633 7.01291 659.633 10.3266V73.9899C659.633 77.3036 656.947 79.9899 653.633 79.9899H589.97C586.656 79.9899 583.97 77.3036 583.97 73.9899V10.3266Z" fill="black"/>
<path d="M583.97 237.317C583.97 234.003 586.656 231.317 589.97 231.317H653.633C656.947 231.317 659.633 234.003 659.633 237.317V300.98C659.633 304.294 656.947 306.98 653.633 306.98H589.97C586.656 306.98 583.97 304.294 583.97 300.98V237.317Z" fill="white"/>
<path d="M583.97 464.306C583.97 460.993 586.656 458.306 589.97 458.306H653.633C656.947 458.306 659.633 460.993 659.633 464.306V527.97C659.633 531.283 656.947 533.97 653.633 533.97H589.97C586.656 533.97 583.97 531.283 583.97 527.97V464.306Z" fill="black"/>
</g>
<defs>
<filter id="filter0_d" x="-101" y="-147" width="764.633" height="1295.48" filterUnits="userSpaceOnUse" color-interpolation-filters="sRGB">
<feFlood flood-opacity="0" result="BackgroundImageFix"/>
<feColorMatrix in="SourceAlpha" type="matrix" values="0 0 0 0 0 0 0 0 0 0 0 0 0 0 0 0 0 0 127 0"/>
<feOffset dy="4"/>
<feGaussianBlur stdDeviation="2"/>
<feColorMatrix type="matrix" values="0 0 0 0 0.851736 0 0 0 0 0.0649306 0 0 0 0 0.0649308 0 0 0 0.17 0"/>
<feBlend mode="normal" in2="BackgroundImageFix" result="effect1_dropShadow"/>
<feBlend mode="normal" in="SourceGraphic" in2="effect1_dropShadow" result="shape"/>
</filter>
</defs>
</svg>
